<svg width="139" height="45" viewBox="0 0 139 45" fill="none" xmlns="http://www.w3.org/2000/svg">
<path d="M35.144 34H27.416L26.84 20.992C26.68 17.888 26.6 15.12 26.6 12.688C26.6 10.832 26.648 9.07196 26.744 7.40796L21.608 30.496H14.168L8.69598 7.40796C8.88798 10.192 8.98398 12.816 8.98398 15.28C8.98398 17.136 8.93598 19.072 8.83998 21.088L8.26398 34H0.583984L3.07998 0.735962H13.016L18.008 23.296L22.664 0.735962H32.648L35.144 34Z" fill="#141414"/>
<path d="M50.7504 7.69596C54.6544 7.69596 57.7104 8.89596 59.9184 11.296C62.1264 13.664 63.2304 16.992 63.2304 21.28C63.2304 24 62.7184 26.384 61.6944 28.432C60.7024 30.448 59.2624 32.016 57.3744 33.136C55.5184 34.256 53.3104 34.816 50.7504 34.816C46.8784 34.816 43.8224 33.632 41.5824 31.264C39.3744 28.864 38.2704 25.52 38.2704 21.232C38.2704 18.512 38.7664 16.144 39.7584 14.128C40.7824 12.08 42.2224 10.496 44.0784 9.37596C45.9664 8.25596 48.1904 7.69596 50.7504 7.69596ZM50.7504 13.264C49.2144 13.264 48.0624 13.92 47.2944 15.232C46.5264 16.512 46.1424 18.512 46.1424 21.232C46.1424 24.016 46.5104 26.048 47.2464 27.328C48.0144 28.608 49.1824 29.248 50.7504 29.248C52.2864 29.248 53.4384 28.608 54.2064 27.328C54.9744 26.016 55.3584 24 55.3584 21.28C55.3584 18.496 54.9744 16.464 54.2064 15.184C53.4704 13.904 52.3184 13.264 50.7504 13.264Z" fill="#141414"/>
<path d="M82.6696 7.69596C84.8776 7.69596 86.6056 8.36796 87.8536 9.71196C89.1016 11.056 89.7256 12.944 89.7256 15.376V34H82.1416V16.672C82.1416 15.392 81.9336 14.512 81.5176 14.032C81.1336 13.52 80.5416 13.264 79.7416 13.264C78.2056 13.264 76.7336 14.368 75.3256 16.576V34H67.7416V8.51196H74.3656L74.8936 11.536C75.9816 10.256 77.1496 9.29596 78.3976 8.65596C79.6776 8.01596 81.1016 7.69596 82.6696 7.69596Z" fill="#141414"/>
<path d="M109.227 34.048C108.203 37.344 106.523 39.872 104.187 41.632C101.883 43.424 98.7795 44.432 94.8755 44.656L94.0595 39.328C96.4915 39.008 98.2835 38.464 99.4355 37.696C100.619 36.928 101.563 35.696 102.267 34H99.6755L91.8995 8.51196H99.9635L104.523 29.152L109.515 8.51196H117.339L109.227 34.048Z" fill="#141414"/>
<path d="M128.561 7.69596C130.385 7.69596 132.097 7.96796 133.697 8.51196C135.297 9.05596 136.705 9.82396 137.921 10.816L135.137 15.088C133.057 13.776 130.961 13.12 128.849 13.12C127.857 13.12 127.089 13.296 126.545 13.648C126.033 13.968 125.777 14.432 125.777 15.04C125.777 15.52 125.889 15.92 126.113 16.24C126.369 16.528 126.865 16.832 127.601 17.152C128.337 17.472 129.473 17.856 131.009 18.304C133.665 19.072 135.633 20.08 136.913 21.328C138.225 22.544 138.881 24.24 138.881 26.416C138.881 28.144 138.385 29.648 137.393 30.928C136.401 32.176 135.041 33.136 133.313 33.808C131.585 34.48 129.665 34.816 127.553 34.816C125.409 34.816 123.409 34.48 121.553 33.808C119.729 33.136 118.177 32.208 116.897 31.024L120.593 26.896C122.737 28.56 124.993 29.392 127.361 29.392C128.513 29.392 129.409 29.184 130.049 28.768C130.721 28.352 131.057 27.76 131.057 26.992C131.057 26.384 130.929 25.904 130.673 25.552C130.417 25.2 129.921 24.88 129.185 24.592C128.449 24.272 127.281 23.888 125.681 23.44C123.153 22.704 121.265 21.68 120.017 20.368C118.769 19.056 118.145 17.424 118.145 15.472C118.145 14 118.561 12.688 119.393 11.536C120.257 10.352 121.473 9.42396 123.041 8.75196C124.641 8.04796 126.481 7.69596 128.561 7.69596Z" fill="#141414"/>
</svg>
